# xmcd
#
# Track frame offsets:
#	150
#	16242
#	38347
#	54805
#	72120
#	83917
#	99240
#	115502
#	130640
#	150577
#	166492
#
# Disc length: 2444 seconds
#
# Revision: 1
# Processed by: cddbd v1.5.2PL0 Copyright (c) Steve Scherf et al.
# Submitted via: audiograbber 1.83.01
#
DISCID=6e098a0b
DTITLE=Various Artist - CDX 45 November 1992
DYEAR=1992
DGENRE=Country
TTITLE0=Alvin And The Chipmunks - Achy Breaky Heart
TTITLE1=Alvin And The Chipmunks - Achy Breaky Heart (Album Version)
TTITLE2=Travis Tritt - Can I Trust You With My Heart
TTITLE3=Marshall Tucker Band - Driving You Out Of My Mind
TTITLE4=Collin Raye - I Want You Bad (And That Ain't Good)
TTITLE5=Corbin/Hanner - I Will Stand By You
TTITLE6=Mac McAnally - Junk Cars
TTITLE7=John Anderson - Let Go Of The Stone
TTITLE8=Wynonna - My Strongest Weakness
TTITLE9=The Rankin Family - Orangedale Whistle
TTITLE10=Deborah Allen - Rock Me (In The Cradle Of Love)
EXTD=
EXTT0=
EXTT1=
EXTT2=
EXTT3=
EXTT4=
EXTT5=
EXTT6=
EXTT7=
EXTT8=
EXTT9=
EXTT10=
PLAYORDER=
